<svg width="66" height="67" viewBox="0 0 66 67" fill="none" xmlns="http://www.w3.org/2000/svg">
<ellipse cx="33" cy="33.7946" rx="33" ry="32.9664" fill="white"/>
<path d="M33 0.757812C14.775 0.757812 0 15.6088 0 33.9274C0 50.5575 12.1875 64.2882 28.068 66.687V42.7189H19.9035V33.9998H28.068V28.1981C28.068 18.5925 32.724 14.3754 40.6665 14.3754C44.4705 14.3754 46.482 14.6589 47.4345 14.7886V22.3995H42.0165C38.6445 22.3995 37.467 25.6124 37.467 29.2339V33.9998H47.349L46.008 42.7189H37.467V66.7578C53.574 64.5611 66 50.7188 66 33.9274C66 15.6088 51.225 0.757812 33 0.757812Z" fill="#334B95"/>
</svg>
