<svg width="71" height="71" viewBox="0 0 71 71" fill="none" xmlns="http://www.w3.org/2000/svg">
<path d="M35.3125 69.9174C54.095 69.9174 69.3125 54.6143 69.3125 35.7477C69.3125 16.8812 54.095 1.57812 35.3125 1.57812C16.53 1.57812 1.3125 16.8812 1.3125 35.7477C1.3125 54.6143 16.53 69.9174 35.3125 69.9174Z" fill="white" stroke="#DFDFDF" stroke-width="2"/>
<path d="M51.1149 52.0815C50.5354 53.0942 50.7921 53.9109 49.8204 54.4739C48.8486 55.0379 47.7296 55.3483 46.565 55.3483H24.0538C22.8903 55.3483 21.7724 55.0379 20.7995 54.4749C19.8267 53.912 20.0835 53.0942 19.5039 52.0815L27.8129 42.2812H42.8059L51.1149 52.0815Z" fill="#1E88E5"/>
<path d="M39.0618 17.2333C40.2242 17.2311 41.3411 16.4536 42.3129 17.0177C43.2846 17.5828 44.1112 18.4006 44.6929 19.4144L55.9485 39.0106C56.5302 40.0232 56.8227 41.1525 56.8238 42.2795C56.8249 43.4087 55.4513 44.5368 54.8674 45.5473L42.8133 42.2751L35.3125 29.2157L39.0618 17.2333Z" fill="#FBC02D"/>
<path d="M56.8266 42.2812C56.8266 43.4137 56.5341 44.5353 55.9492 45.548L51.9734 52.4626C51.3993 53.312 50.6626 53.9871 49.8176 54.4771L42.8086 42.2812H56.8266Z" fill="#E53935"/>
<path d="M15.7553 45.548C15.1725 44.5375 13.7988 43.4094 13.7988 42.2812C13.7999 41.1531 14.0913 40.0239 14.6741 39.0101L25.9297 19.414C26.5115 18.4013 27.3381 17.5824 28.3087 17.0184C29.2804 16.4532 30.3984 17.2307 31.5608 17.2329L35.308 29.2208L27.8093 42.2758L15.7553 45.548Z" fill="#4CAF50"/>
<path d="M27.8149 42.2812L20.8059 54.4771C19.9609 53.9871 19.2243 53.312 18.6501 52.4626L14.6744 45.548C14.0894 44.5353 13.7969 43.4137 13.7969 42.2812H27.8149Z" fill="#1565C0"/>
<path d="M42.308 17.0196L35.3098 29.2154L28.3008 17.0196C29.1458 16.5296 30.0991 16.2247 31.1174 16.1593L39.0581 16.1484C40.228 16.1484 41.3438 16.4533 42.308 17.0196Z" fill="#2E7D32"/>
</svg>
