<svg width="70" height="71" viewBox="0 0 70 71" fill="none" xmlns="http://www.w3.org/2000/svg">
<path d="M35 69.3783C53.7825 69.3783 69 54.0752 69 35.2087C69 16.3422 53.7825 1.03906 35 1.03906C16.2175 1.03906 1 16.3422 1 35.2087C1 54.0752 16.2175 69.3783 35 69.3783Z" fill="white" stroke="#DFDFDF" stroke-width="2"/>
<path d="M56.8484 32.8889V42.1647C56.8484 46.0072 53.75 49.1215 49.9271 49.1215C46.1043 49.1215 43.0059 46.0072 43.0059 42.1647V30.5699H54.5413C55.816 30.5699 56.8484 31.6077 56.8484 32.8889ZM49.9271 25.932C52.4753 25.932 54.5413 23.8554 54.5413 21.2941C54.5413 18.7329 52.4753 16.6562 49.9271 16.6562C47.379 16.6562 45.313 18.7329 45.313 21.2941C45.313 23.8554 47.379 25.932 49.9271 25.932Z" fill="#5059C9"/>
<path d="M46.4674 32.8908V45.645C46.4674 52.3039 40.8831 57.6525 34.1637 57.2142C28.0326 56.8154 23.3965 51.4227 23.3965 45.2473V30.5718H44.1603C45.435 30.5718 46.4674 31.6095 46.4674 32.8908ZM34.9319 27.0934C38.7548 27.0934 41.8532 23.979 41.8532 20.1365C41.8532 16.294 38.7548 13.1797 34.9319 13.1797C31.1091 13.1797 28.0107 16.294 28.0107 20.1365C28.0107 23.979 31.1091 27.0934 34.9319 27.0934Z" fill="#7B83EB"/>
<path d="M34.931 27.0934C38.7536 27.0934 41.8523 23.9787 41.8523 20.1365C41.8523 16.2944 38.7536 13.1797 34.931 13.1797C31.1085 13.1797 28.0098 16.2944 28.0098 20.1365C28.0098 23.9787 31.1085 27.0934 34.931 27.0934Z" fill="#7B83EB"/>
<path opacity="0.05" d="M36.0855 46.0134V30.5703H23.3965V45.2458C23.3965 47.0244 23.7922 48.7335 24.4854 50.2814H31.8381C34.1844 50.2814 36.0855 48.3706 36.0855 46.0134Z" fill="black"/>
<path opacity="0.07" d="M23.3965 30.5703V45.2458C23.3965 46.5908 23.6283 47.894 24.0355 49.1219H31.7159C33.7046 49.1219 35.3161 47.5021 35.3161 45.5032V30.5703H23.3965Z" fill="black"/>
<path opacity="0.09" d="M34.5478 30.5703H23.3965V45.2458C23.3965 46.1757 23.513 47.0824 23.7126 47.9624H31.5936C33.2247 47.9624 34.5467 46.6337 34.5467 44.9942L34.5478 30.5703Z" fill="black"/>
<path d="M31.4709 46.8067H13.0141C11.7395 46.8067 10.707 45.769 10.707 44.4877V25.9361C10.707 24.6549 11.7395 23.6172 13.0141 23.6172H31.4709C32.7455 23.6172 33.7779 24.6549 33.7779 25.9361V44.4877C33.7779 45.769 32.7455 46.8067 31.4709 46.8067Z" fill="url(#paint0_linear_9501_95680)"/>
<path d="M26.9341 29.4141H17.5488V31.4084H21.0637V41.0088H23.4192V31.4084H26.9341V29.4141Z" fill="white"/>
<defs>
<linearGradient id="paint0_linear_9501_95680" x1="11.4545" y1="24.3685" x2="33.2002" y2="46.003" gradientUnits="userSpaceOnUse">
<stop stop-color="#5961C3"/>
<stop offset="1" stop-color="#3A41AC"/>
</linearGradient>
</defs>
</svg>
