<svg width="71" height="71" viewBox="0 0 71 71" fill="none" xmlns="http://www.w3.org/2000/svg">
<path d="M35.2852 69.597C54.0677 69.597 69.2852 54.2939 69.2852 35.4274C69.2852 16.5609 54.0677 1.25781 35.2852 1.25781C16.5026 1.25781 1.28516 16.5609 1.28516 35.4274C1.28516 54.2939 16.5026 69.597 35.2852 69.597Z" fill="white" stroke="#DFDFDF" stroke-width="2"/>
<g clip-path="url(#clip0_9501_82607)">
<path d="M19.0871 42.6822C19.0871 45.9586 16.4391 48.6066 13.1627 48.6066C9.88631 48.6066 7.23828 45.9586 7.23828 42.6822C7.23828 39.4058 9.88631 36.7578 13.1627 36.7578H19.0871V42.6822ZM22.0493 42.6822C22.0493 39.4058 24.6973 36.7578 27.9737 36.7578C31.2501 36.7578 33.8981 39.4058 33.8981 42.6822V57.4932C33.8981 60.7696 31.2501 63.4177 27.9737 63.4177C24.6973 63.4177 22.0493 60.7696 22.0493 57.4932V42.6822Z" fill="#E01E5A"/>
<path d="M27.9737 18.8879C24.6973 18.8879 22.0493 16.2399 22.0493 12.9635C22.0493 9.68709 24.6973 7.03906 27.9737 7.03906C31.2501 7.03906 33.8981 9.68709 33.8981 12.9635V18.8879H27.9737ZM27.9737 21.895C31.2501 21.895 33.8981 24.543 33.8981 27.8194C33.8981 31.0958 31.2501 33.7438 27.9737 33.7438H13.1178C9.84139 33.7438 7.19336 31.0958 7.19336 27.8194C7.19336 24.543 9.84139 21.895 13.1178 21.895H27.9737Z" fill="#36C5F0"/>
<path d="M51.7153 27.8194C51.7153 24.543 54.3633 21.895 57.6397 21.895C60.9161 21.895 63.5641 24.543 63.5641 27.8194C63.5641 31.0958 60.9161 33.7438 57.6397 33.7438H51.7153V27.8194ZM48.7531 27.8194C48.7531 31.0958 46.1051 33.7438 42.8287 33.7438C39.5523 33.7438 36.9043 31.0958 36.9043 27.8194V12.9635C36.9043 9.68709 39.5523 7.03906 42.8287 7.03906C46.1051 7.03906 48.7531 9.68709 48.7531 12.9635V27.8194Z" fill="#2EB67D"/>
<path d="M42.8287 51.5688C46.1051 51.5688 48.7531 54.2169 48.7531 57.4932C48.7531 60.7696 46.1051 63.4177 42.8287 63.4177C39.5523 63.4177 36.9043 60.7696 36.9043 57.4932V51.5688H42.8287ZM42.8287 48.6066C39.5523 48.6066 36.9043 45.9586 36.9043 42.6822C36.9043 39.4058 39.5523 36.7578 42.8287 36.7578H57.6846C60.961 36.7578 63.609 39.4058 63.609 42.6822C63.609 45.9586 60.961 48.6066 57.6846 48.6066H42.8287Z" fill="#ECB22E"/>
</g>
<defs>
<clipPath id="clip0_9501_82607">
<rect width="57" height="57" fill="white" transform="translate(6.87891 6.77344)"/>
</clipPath>
</defs>
</svg>
