<svg width="70" height="70" viewBox="0 0 70 70" fill="none" xmlns="http://www.w3.org/2000/svg">
<rect width="70" height="70" rx="35" fill="black"/>
<path d="M43.3615 33.4571C43.5311 33.5253 43.6853 33.6012 43.8472 33.6694C46.0985 34.7384 47.7485 36.3382 48.612 38.3246C49.8225 41.0919 49.9381 45.5879 46.2759 49.1817C43.4849 51.9263 40.0847 53.1621 35.2814 53.2H35.2583C29.8459 53.1621 25.6902 51.3728 22.8914 47.8776C20.4011 44.7691 19.1213 40.4399 19.075 35.019V34.9962V34.981C19.1135 29.5601 20.3934 25.2309 22.8837 22.1224C25.6825 18.6272 29.8459 16.8379 35.2583 16.8H35.2814C40.7015 16.8379 44.9112 18.6196 47.7947 22.0996C49.2134 23.8207 50.2619 25.8905 50.925 28.2939L47.8102 29.1128C47.2628 27.1567 46.4378 25.4887 45.3275 24.1543C43.0762 21.44 39.6992 20.045 35.266 20.0147C30.8713 20.0526 27.5483 21.44 25.3818 24.1391C23.3618 26.6639 22.3132 30.3183 22.2746 34.9962C22.3132 39.6742 23.3618 43.3286 25.3818 45.8609C27.5406 48.56 30.8713 49.9474 35.266 49.9853C39.2289 49.955 41.8503 49.03 44.0323 46.8844C46.5226 44.4431 46.4763 41.4407 45.6822 39.6135C45.2119 38.5369 44.3638 37.6422 43.2227 36.9675C42.9374 39.007 42.3129 40.6295 41.3183 41.8804C39.9999 43.5333 38.1264 44.4279 35.7132 44.5568C33.8936 44.6554 32.1434 44.2232 30.7865 43.3437C29.1828 42.2974 28.2422 40.7053 28.142 38.8477C27.9492 35.1858 30.8944 32.5549 35.4819 32.2971C37.1087 32.2061 38.6353 32.2744 40.0462 32.5094C39.8612 31.3873 39.4834 30.4926 38.9205 29.8406C38.1495 28.9536 36.9468 28.4986 35.3585 28.4911H35.3045C34.0247 28.4911 32.2976 28.8398 31.1951 30.4851L28.5429 28.6958C30.0232 26.4895 32.421 25.2764 35.3123 25.2764H35.3739C40.2004 25.3067 43.0762 28.2712 43.3692 33.4419L43.3538 33.4571H43.3615ZM31.3339 38.6734C31.4341 40.5764 33.5235 41.4634 35.5436 41.3497C37.5173 41.2436 39.7532 40.4854 40.131 35.7999C39.1133 35.58 37.9876 35.4663 36.7849 35.4663C36.4148 35.4663 36.0447 35.4739 35.6746 35.4966C32.367 35.6786 31.2645 37.2556 31.3416 38.6658L31.3339 38.6734Z" fill="white"/>
</svg>
