<svg width="66" height="67" viewBox="0 0 66 67" fill="none" xmlns="http://www.w3.org/2000/svg">
<ellipse cx="33" cy="33.7556" rx="33" ry="33.1696" fill="#212121"/>
<path fill-rule="evenodd" clip-rule="evenodd" d="M41.1367 28.4223C43.5992 30.1907 46.6164 31.2304 49.8742 31.2304V24.931C49.257 24.931 48.643 24.8666 48.0398 24.7378V29.696C44.782 29.696 41.7664 28.6547 39.3023 26.8879V39.7411C39.3023 46.1709 34.1133 51.3835 27.7133 51.3835C25.3258 51.3835 23.1055 50.6579 21.2617 49.414C23.3664 51.5751 26.3008 52.9163 29.5477 52.9163C35.9477 52.9163 41.1367 47.7037 41.1367 41.274V28.4223ZM43.4008 22.0679C42.143 20.6874 41.3164 18.9017 41.1367 16.9276V16.1172H39.3977C39.8352 18.6253 41.3289 20.7691 43.4008 22.0679ZM25.3102 44.481C24.607 43.5544 24.2273 42.422 24.2289 41.2567C24.2289 38.3151 26.6023 35.931 29.5305 35.931C30.0758 35.931 30.618 36.0142 31.1383 36.1807V29.7415C30.5305 29.6583 29.918 29.6222 29.3039 29.6347V34.6463C28.7836 34.4798 28.2414 34.3966 27.6945 34.3966C24.7664 34.3966 22.393 36.7807 22.393 39.7223C22.3945 41.8032 23.5805 43.6046 25.3102 44.481Z" fill="#EC407A"/>
<path fill-rule="evenodd" clip-rule="evenodd" d="M39.3016 26.8879C41.7641 28.6563 44.7812 29.696 48.0391 29.696V24.7378C46.2203 24.3483 44.6109 23.3935 43.4 22.0664C41.3281 20.7675 39.8359 18.6253 39.3984 16.1172H34.8312V41.274C34.8203 44.2061 32.4516 46.5808 29.5297 46.5808C27.8078 46.5808 26.2781 45.7562 25.3094 44.4794C23.5797 43.603 22.3937 41.8017 22.3937 39.7223C22.3937 36.7807 24.7672 34.3966 27.6953 34.3966C28.2563 34.3966 28.7969 34.4845 29.3047 34.6463V29.6363C23.0172 29.7667 17.9609 34.9274 17.9609 41.2755C17.9609 44.4449 19.2203 47.3174 21.2641 49.4156C23.1078 50.6594 25.3281 51.385 27.7156 51.385C34.1156 51.385 39.3047 46.1724 39.3047 39.7427L39.3016 26.8879Z" fill="white"/>
<path fill-rule="evenodd" clip-rule="evenodd" d="M48.0406 24.7426V23.4013C46.4 23.4045 44.7937 22.9427 43.4016 22.0695C44.6328 23.4249 46.2547 24.3594 48.0406 24.7426ZM39.3984 16.1203C39.3562 15.8801 39.325 15.6398 39.3031 15.3963V14.5859H32.9969V39.7443C32.9875 42.6765 30.6172 45.0511 27.6953 45.0511C26.8375 45.0511 26.0281 44.8469 25.3109 44.4826C26.2797 45.7594 27.8094 46.5839 29.5312 46.5839C32.4531 46.5839 34.8219 44.2093 34.8328 41.2771V16.1203H39.3984ZM29.3047 29.6395V28.2119C28.7781 28.1396 28.2469 28.1035 27.7141 28.1035C21.3125 28.1035 16.125 33.3161 16.125 39.7458C16.125 43.7774 18.1641 47.3299 21.2625 49.4187C19.2188 47.3205 17.9594 44.448 17.9594 41.2787C17.9594 34.9306 23.0172 29.7698 29.3047 29.6395Z" fill="#81D4FA"/>
</svg>
