<svg width="66" height="67" viewBox="0 0 66 67" fill="none" xmlns="http://www.w3.org/2000/svg">
<ellipse cx="33" cy="34.0183" rx="32.4375" ry="32.6042" fill="white"/>
<mask id="mask0_9501_81691" style="mask-type:alpha" maskUnits="userSpaceOnUse" x="0" y="0" width="66" height="67">
<ellipse cx="33" cy="33.7556" rx="33" ry="33.1696" fill="#303030"/>
</mask>
<g mask="url(#mask0_9501_81691)">
<path d="M10.4633 -0.21875C4.24016 -0.21875 -0.804688 4.85203 -0.804688 11.1072V56.4109C-0.804688 62.666 4.24016 67.7368 10.4633 67.7368H55.5354C61.7585 67.7368 66.8034 62.666 66.8034 56.4109V11.1072C66.8034 4.85203 61.7585 -0.21875 55.5354 -0.21875H10.4633ZM13.8211 14.3432H26.5982L35.6717 27.3029L46.6819 14.3432H50.7062L37.4889 29.8973L53.7873 53.1749H41.0133L30.4842 38.139L17.707 53.1749H13.6828L28.6669 35.5445L13.8211 14.3432ZM19.9833 17.5791L42.6922 49.9389H47.6251L24.9162 17.5791H19.9833Z" fill="#303030"/>
</g>
</svg>
