<svg width="66" height="67" viewBox="0 0 66 67" fill="none" xmlns="http://www.w3.org/2000/svg">
<ellipse cx="33" cy="33.5837" rx="33" ry="33.1696" fill="#FF0000"/>
<path d="M48.5789 25.4983C48.2739 23.8058 46.8204 22.5733 45.1336 22.1885C42.6094 21.6504 37.9378 21.2656 32.8834 21.2656C27.832 21.2656 23.0857 21.6504 20.5585 22.1885C18.8747 22.5733 17.4182 23.7277 17.1131 25.4983C16.8051 27.4222 16.5 30.1157 16.5 33.5788C16.5 37.0418 16.8051 39.7353 17.1879 41.6593C17.4959 43.3517 18.9494 44.5842 20.6332 44.969C23.313 45.5071 27.9068 45.8919 32.9612 45.8919C38.0156 45.8919 42.6094 45.5071 45.2891 44.969C46.9729 44.5842 48.4264 43.4299 48.7345 41.6593C49.0395 39.7353 49.4223 36.9637 49.5001 33.5788C49.3446 30.1157 48.9618 27.4222 48.5789 25.4983ZM28.7502 38.9658V28.1918L38.0903 33.5788L28.7502 38.9658Z" fill="white"/>
</svg>
